<?xml version="1.0" encoding="UTF-8" standalone="no"?>
<!-- Created with Inkscape (http://www.inkscape.org/) -->

<svg
   xmlns:dc="http://purl.org/dc/elements/1.1/"
   xmlns:cc="http://creativecommons.org/ns#"
   xmlns:rdf="http://www.w3.org/1999/02/22-rdf-syntax-ns#"
   xmlns:svg="http://www.w3.org/2000/svg"
   xmlns="http://www.w3.org/2000/svg"
   xmlns:xlink="http://www.w3.org/1999/xlink"
   xmlns:sodipodi="http://sodipodi.sourceforge.net/DTD/sodipodi-0.dtd"
   xmlns:inkscape="http://www.inkscape.org/namespaces/inkscape"
   version="1.1"
   id="svg2"
   xml:space="preserve"
   width="793.76001"
   height="1122.5601"
   viewBox="0 0 793.76001 1122.5601"
   sodipodi:docname="pro_block.svg"
   inkscape:version="0.92.4 5da689c313, 2019-01-14"><metadata
     id="metadata8"><rdf:RDF><cc:Work
         rdf:about=""><dc:format>image/svg+xml</dc:format><dc:type
           rdf:resource="http://purl.org/dc/dcmitype/StillImage" /><dc:title /></cc:Work></rdf:RDF></metadata><defs
     id="defs6"><clipPath
       clipPathUnits="userSpaceOnUse"
       id="clipPath26"><path
         d="m 480.45,776.02 h 87.839 v 23.701 H 480.45 Z"
         id="path24"
         inkscape:connector-curvature="0" /></clipPath><clipPath
       clipPathUnits="userSpaceOnUse"
       id="clipPath176"><path
         d="M 57.48,495.24 H 189 v 54.239 H 57.48 Z m 3.72,13.08 v 31.2 c 0,4.308 3.492,7.8 7.8,7.8 v 0 h 108.5 c 4.308,0 7.8,-3.492 7.8,-7.8 v 0 -31.2 c 0,-4.307 -3.492,-7.8 -7.8,-7.8 v 0 H 69 c -4.308,0 -7.8,3.493 -7.8,7.8"
         id="path174"
         inkscape:connector-curvature="0" /></clipPath><mask
       maskUnits="userSpaceOnUse"
       x="0"
       y="0"
       width="1"
       height="1"
       id="mask182"><image
         width="1"
         height="1"
         style="image-rendering:optimizeSpeed"
         preserveAspectRatio="none"
         xlink:href="file:///home/aske/Downloads/projektbeskrivelse_img0.png"
         id="image184"
         sodipodi:absref="/home/aske/Downloads/projektbeskrivelse_img0.png" /></mask><clipPath
       clipPathUnits="userSpaceOnUse"
       id="clipPath194"><path
         d="m 184.541,542.88 c 0.487,-1.018 0.759,-2.157 0.759,-3.36 v 0 -31.2 c 0,-2.7 -1.372,-5.08 -3.457,-6.48 v 0 H 186 v 41.04 z m -124.061,0 v -41.04 h 4.177 c -2.085,1.4 -3.457,3.78 -3.457,6.48 v 0 31.2 c 0,1.203 0.272,2.342 0.759,3.36 v 0 z"
         id="path192"
         inkscape:connector-curvature="0" /></clipPath><mask
       maskUnits="userSpaceOnUse"
       x="0"
       y="0"
       width="1"
       height="1"
       id="mask200"><image
         width="1"
         height="1"
         style="image-rendering:optimizeSpeed"
         preserveAspectRatio="none"
         xlink:href="file:///home/aske/Downloads/projektbeskrivelse_img2.png"
         id="image202"
         sodipodi:absref="/home/aske/Downloads/projektbeskrivelse_img2.png" /></mask><clipPath
       clipPathUnits="userSpaceOnUse"
       id="clipPath212"><path
         d="m 69,547.32 c -4.308,0 -7.8,-3.492 -7.8,-7.801 v 0 -31.199 c 0,-4.307 3.492,-7.8 7.8,-7.8 v 0 h 108.5 c 4.308,0 7.8,3.493 7.8,7.8 v 0 31.199 c 0,4.309 -3.492,7.801 -7.8,7.801 v 0 z"
         id="path210"
         inkscape:connector-curvature="0" /></clipPath><clipPath
       clipPathUnits="userSpaceOnUse"
       id="clipPath222"><path
         d="m 61.19999,547.32 h 124.1 v -46.8 h -124.1 z"
         id="path220"
         inkscape:connector-curvature="0" /></clipPath><linearGradient
       x1="-22.549999"
       y1="-500.51999"
       x2="-22.549999"
       y2="-547.32001"
       gradientUnits="userSpaceOnUse"
       gradientTransform="matrix(1,0,0,-1,122.39999,0)"
       spreadMethod="pad"
       id="linearGradient230"><stop
         style="stop-opacity:1;stop-color:#bcbcbc"
         offset="0"
         id="stop224" /><stop
         style="stop-opacity:1;stop-color:#d0d0d0"
         offset="0.35"
         id="stop226" /><stop
         style="stop-opacity:1;stop-color:#ededed"
         offset="1"
         id="stop228" /></linearGradient><clipPath
       clipPathUnits="userSpaceOnUse"
       id="clipPath240"><path
         d="M 0,0 H 595.32 V 841.92 H 0 Z"
         id="path238"
         inkscape:connector-curvature="0" /></clipPath><mask
       maskUnits="userSpaceOnUse"
       x="0"
       y="0"
       width="1"
       height="1"
       id="mask250"><image
         width="1"
         height="1"
         style="image-rendering:optimizeSpeed"
         preserveAspectRatio="none"
         xlink:href="file:///home/aske/Downloads/projektbeskrivelse_img4.png"
         id="image252"
         sodipodi:absref="/home/aske/Downloads/projektbeskrivelse_img4.png" /></mask><clipPath
       clipPathUnits="userSpaceOnUse"
       id="clipPath266"><path
         d="m 209.88,401.64 h 86.52 v 148.559 h -86.52 z m 3.72,18.425 v 114.8 c 0,7.276 5.899,13.175 13.176,13.175 v 0 h 52.699 c 7.276,0 13.175,-5.899 13.175,-13.175 v 0 -114.8 c 0,-7.276 -5.899,-13.175 -13.175,-13.175 v 0 h -52.699 c -7.277,0 -13.176,5.899 -13.176,13.175"
         id="path264"
         inkscape:connector-curvature="0" /></clipPath><mask
       maskUnits="userSpaceOnUse"
       x="0"
       y="0"
       width="1"
       height="1"
       id="mask272"><image
         width="1"
         height="1"
         style="image-rendering:optimizeSpeed"
         preserveAspectRatio="none"
         xlink:href="file:///home/aske/Downloads/projektbeskrivelse_img6.png"
         id="image274"
         sodipodi:absref="/home/aske/Downloads/projektbeskrivelse_img6.png" /></mask><clipPath
       clipPathUnits="userSpaceOnUse"
       id="clipPath284"><path
         d="m 290.604,541.92 c 0.496,-0.781 0.912,-1.617 1.236,-2.497 v 0 2.497 z m -76.044,0 v -2.109 c 0.299,0.739 0.664,1.444 1.086,2.109 v 0 z M 287.734,409.8 h 4.106 v 5.707 c -0.832,-2.258 -2.265,-4.225 -4.106,-5.707 m -73.174,0 h 3.956 c -1.734,1.397 -3.107,3.223 -3.956,5.318 v 0 z"
         id="path282"
         inkscape:connector-curvature="0" /></clipPath><mask
       maskUnits="userSpaceOnUse"
       x="0"
       y="0"
       width="1"
       height="1"
       id="mask290"><image
         width="1"
         height="1"
         style="image-rendering:optimizeSpeed"
         preserveAspectRatio="none"
         xlink:href="file:///home/aske/Downloads/projektbeskrivelse_img8.png"
         id="image292"
         sodipodi:absref="/home/aske/Downloads/projektbeskrivelse_img8.png" /></mask><clipPath
       clipPathUnits="userSpaceOnUse"
       id="clipPath302"><path
         d="m 226.776,548.04 c -7.278,0 -13.176,-5.899 -13.176,-13.175 v 0 -114.8 c 0,-7.276 5.898,-13.175 13.176,-13.175 v 0 h 52.698 c 7.277,0 13.176,5.899 13.176,13.175 v 0 114.8 c 0,7.276 -5.899,13.175 -13.176,13.175 v 0 z"
         id="path300"
         inkscape:connector-curvature="0" /></clipPath><clipPath
       clipPathUnits="userSpaceOnUse"
       id="clipPath312"><path
         d="m 213.59998,548.04 h 79.05 V 406.89 h -79.05 z"
         id="path310"
         inkscape:connector-curvature="0" /></clipPath><linearGradient
       x1="-244.64999"
       y1="-406.89001"
       x2="-244.64999"
       y2="-548.03998"
       gradientUnits="userSpaceOnUse"
       gradientTransform="matrix(1,0,0,-1,427.19998,0)"
       spreadMethod="pad"
       id="linearGradient320"><stop
         style="stop-opacity:1;stop-color:#bcbcbc"
         offset="0"
         id="stop314" /><stop
         style="stop-opacity:1;stop-color:#d0d0d0"
         offset="0.35"
         id="stop316" /><stop
         style="stop-opacity:1;stop-color:#ededed"
         offset="1"
         id="stop318" /></linearGradient><clipPath
       clipPathUnits="userSpaceOnUse"
       id="clipPath330"><path
         d="M 0,0 H 595.32 V 841.92 H 0 Z"
         id="path328"
         inkscape:connector-curvature="0" /></clipPath><mask
       maskUnits="userSpaceOnUse"
       x="0"
       y="0"
       width="1"
       height="1"
       id="mask340"><image
         width="1"
         height="1"
         style="image-rendering:optimizeSpeed"
         preserveAspectRatio="none"
         xlink:href="file:///home/aske/Downloads/projektbeskrivelse_img10.png"
         id="image342"
         sodipodi:absref="/home/aske/Downloads/projektbeskrivelse_img10.png" /></mask><clipPath
       clipPathUnits="userSpaceOnUse"
       id="clipPath356"><path
         d="m 413.88,496.2 h 115.68 v 54.24 H 413.88 Z m 3.72,13.08 v 31.2 c 0,4.308 3.492,7.8 7.8,7.8 v 0 H 518 c 4.308,0 7.8,-3.492 7.8,-7.8 v 0 -31.2 c 0,-4.308 -3.492,-7.8 -7.8,-7.8 v 0 h -92.6 c -4.308,0 -7.8,3.492 -7.8,7.8"
         id="path354"
         inkscape:connector-curvature="0" /></clipPath><mask
       maskUnits="userSpaceOnUse"
       x="0"
       y="0"
       width="1"
       height="1"
       id="mask362"><image
         width="1"
         height="1"
         style="image-rendering:optimizeSpeed"
         preserveAspectRatio="none"
         xlink:href="file:///home/aske/Downloads/projektbeskrivelse_img12.png"
         id="image364"
         sodipodi:absref="/home/aske/Downloads/projektbeskrivelse_img12.png" /></mask><clipPath
       clipPathUnits="userSpaceOnUse"
       id="clipPath374"><path
         d="m 525.097,543.72 c 0.451,-0.987 0.703,-2.084 0.703,-3.24 v 0 -31.2 c 0,-2.7 -1.372,-5.08 -3.457,-6.48 v 0 h 4.217 v 40.92 z m -108.217,0 V 502.8 h 4.176 c -2.084,1.4 -3.456,3.78 -3.456,6.48 v 0 31.2 c 0,1.156 0.251,2.253 0.703,3.24 v 0 z"
         id="path372"
         inkscape:connector-curvature="0" /></clipPath><mask
       maskUnits="userSpaceOnUse"
       x="0"
       y="0"
       width="1"
       height="1"
       id="mask380"><image
         width="1"
         height="1"
         style="image-rendering:optimizeSpeed"
         preserveAspectRatio="none"
         xlink:href="file:///home/aske/Downloads/projektbeskrivelse_img14.png"
         id="image382"
         sodipodi:absref="/home/aske/Downloads/projektbeskrivelse_img14.png" /></mask><clipPath
       clipPathUnits="userSpaceOnUse"
       id="clipPath392"><path
         d="m 425.4,548.28 c -4.308,0 -7.8,-3.492 -7.8,-7.8 v 0 -31.2 c 0,-4.308 3.492,-7.8 7.8,-7.8 v 0 H 518 c 4.308,0 7.8,3.492 7.8,7.8 v 0 31.2 c 0,4.308 -3.492,7.8 -7.8,7.8 v 0 z"
         id="path390"
         inkscape:connector-curvature="0" /></clipPath><clipPath
       clipPathUnits="userSpaceOnUse"
       id="clipPath402"><path
         d="m 417.59995,548.28 h 108.2 v -46.8 h -108.2 z"
         id="path400"
         inkscape:connector-curvature="0" /></clipPath><linearGradient
       x1="-386.89999"
       y1="-501.48001"
       x2="-386.89999"
       y2="-548.28003"
       gradientUnits="userSpaceOnUse"
       gradientTransform="matrix(1,0,0,-1,835.19995,0)"
       spreadMethod="pad"
       id="linearGradient410"><stop
         style="stop-opacity:1;stop-color:#bcbcbc"
         offset="0"
         id="stop404" /><stop
         style="stop-opacity:1;stop-color:#d0d0d0"
         offset="0.35"
         id="stop406" /><stop
         style="stop-opacity:1;stop-color:#ededed"
         offset="1"
         id="stop408" /></linearGradient><clipPath
       clipPathUnits="userSpaceOnUse"
       id="clipPath420"><path
         d="M 0,0 H 595.32 V 841.92 H 0 Z"
         id="path418"
         inkscape:connector-curvature="0" /></clipPath><mask
       maskUnits="userSpaceOnUse"
       x="0"
       y="0"
       width="1"
       height="1"
       id="mask430"><image
         width="1"
         height="1"
         style="image-rendering:optimizeSpeed"
         preserveAspectRatio="none"
         xlink:href="file:///home/aske/Downloads/projektbeskrivelse_img16.png"
         id="image432"
         sodipodi:absref="/home/aske/Downloads/projektbeskrivelse_img16.png" /></mask><clipPath
       clipPathUnits="userSpaceOnUse"
       id="clipPath446"><path
         d="m 57.48,401.52 h 66.119 v 54.24 H 57.48 Z m 3.72,13.08 v 31.2 c 0,4.308 3.492,7.8 7.8,7.8 v 0 h 43.05 c 4.307,0 7.8,-3.492 7.8,-7.8 v 0 -31.2 c 0,-4.308 -3.493,-7.8 -7.8,-7.8 v 0 H 69 c -4.308,0 -7.8,3.492 -7.8,7.8"
         id="path444"
         inkscape:connector-curvature="0" /></clipPath><mask
       maskUnits="userSpaceOnUse"
       x="0"
       y="0"
       width="1"
       height="1"
       id="mask452"><image
         width="1"
         height="1"
         style="image-rendering:optimizeSpeed"
         preserveAspectRatio="none"
         xlink:href="file:///home/aske/Downloads/projektbeskrivelse_img18.png"
         id="image454"
         sodipodi:absref="/home/aske/Downloads/projektbeskrivelse_img18.png" /></mask><clipPath
       clipPathUnits="userSpaceOnUse"
       id="clipPath464"><path
         d="m 119.091,449.16 c 0.487,-1.017 0.759,-2.157 0.759,-3.36 v 0 -31.2 c 0,-2.625 -1.296,-4.946 -3.283,-6.36 v 0 h 4.033 v 40.92 z m -58.611,0 v -40.92 h 4.003 c -1.987,1.414 -3.283,3.735 -3.283,6.36 v 0 31.2 c 0,1.203 0.272,2.343 0.759,3.36 v 0 z"
         id="path462"
         inkscape:connector-curvature="0" /></clipPath><mask
       maskUnits="userSpaceOnUse"
       x="0"
       y="0"
       width="1"
       height="1"
       id="mask470"><image
         width="1"
         height="1"
         style="image-rendering:optimizeSpeed"
         preserveAspectRatio="none"
         xlink:href="file:///home/aske/Downloads/projektbeskrivelse_img20.png"
         id="image472"
         sodipodi:absref="/home/aske/Downloads/projektbeskrivelse_img20.png" /></mask><clipPath
       clipPathUnits="userSpaceOnUse"
       id="clipPath482"><path
         d="m 69,453.6 c -4.308,0 -7.8,-3.492 -7.8,-7.8 v 0 -31.2 c 0,-4.308 3.492,-7.8 7.8,-7.8 v 0 h 43.05 c 4.307,0 7.8,3.492 7.8,7.8 v 0 31.2 c 0,4.308 -3.493,7.8 -7.8,7.8 v 0 z"
         id="path480"
         inkscape:connector-curvature="0" /></clipPath><clipPath
       clipPathUnits="userSpaceOnUse"
       id="clipPath492"><path
         d="m 61.19999,453.6 h 58.65 v -46.8 h -58.65 z"
         id="path490"
         inkscape:connector-curvature="0" /></clipPath><linearGradient
       x1="-55.275002"
       y1="-406.79999"
       x2="-55.275002"
       y2="-453.60001"
       gradientUnits="userSpaceOnUse"
       gradientTransform="matrix(1,0,0,-1,122.39999,0)"
       spreadMethod="pad"
       id="linearGradient500"><stop
         style="stop-opacity:1;stop-color:#bcbcbc"
         offset="0"
         id="stop494" /><stop
         style="stop-opacity:1;stop-color:#d0d0d0"
         offset="0.35"
         id="stop496" /><stop
         style="stop-opacity:1;stop-color:#ededed"
         offset="1"
         id="stop498" /></linearGradient><clipPath
       clipPathUnits="userSpaceOnUse"
       id="clipPath510"><path
         d="M 0,0 H 595.32 V 841.92 H 0 Z"
         id="path508"
         inkscape:connector-curvature="0" /></clipPath><mask
       maskUnits="userSpaceOnUse"
       x="0"
       y="0"
       width="1"
       height="1"
       id="mask520"><image
         width="1"
         height="1"
         style="image-rendering:optimizeSpeed"
         preserveAspectRatio="none"
         xlink:href="file:///home/aske/Downloads/projektbeskrivelse_img22.png"
         id="image522"
         sodipodi:absref="/home/aske/Downloads/projektbeskrivelse_img22.png" /></mask><clipPath
       clipPathUnits="userSpaceOnUse"
       id="clipPath538"><path
         d="m 122.04,401.16 h 66.12 v 54.24 h -66.12 z m 3.72,13.08 v 31.2 c 0,4.308 3.493,7.8 7.8,7.8 v 0 h 43.1 c 4.307,0 7.8,-3.492 7.8,-7.8 v 0 -31.2 c 0,-4.308 -3.493,-7.8 -7.8,-7.8 v 0 h -43.1 c -4.307,0 -7.8,3.492 -7.8,7.8"
         id="path536"
         inkscape:connector-curvature="0" /></clipPath><mask
       maskUnits="userSpaceOnUse"
       x="0"
       y="0"
       width="1"
       height="1"
       id="mask544"><image
         width="1"
         height="1"
         style="image-rendering:optimizeSpeed"
         preserveAspectRatio="none"
         xlink:href="file:///home/aske/Downloads/projektbeskrivelse_img24.png"
         id="image546"
         sodipodi:absref="/home/aske/Downloads/projektbeskrivelse_img24.png" /></mask><clipPath
       clipPathUnits="userSpaceOnUse"
       id="clipPath556"><path
         d="m 183.701,448.8 c 0.487,-1.017 0.759,-2.157 0.759,-3.36 v 0 -31.2 c 0,-2.7 -1.372,-5.08 -3.456,-6.48 v 0 h 4.276 v 41.04 z m -58.541,0 v -41.04 h 4.057 c -2.085,1.4 -3.457,3.78 -3.457,6.48 v 0 31.2 c 0,1.203 0.272,2.343 0.759,3.36 v 0 z"
         id="path554"
         inkscape:connector-curvature="0" /></clipPath><mask
       maskUnits="userSpaceOnUse"
       x="0"
       y="0"
       width="1"
       height="1"
       id="mask562"><image
         width="1"
         height="1"
         style="image-rendering:optimizeSpeed"
         preserveAspectRatio="none"
         xlink:href="file:///home/aske/Downloads/projektbeskrivelse_img26.png"
         id="image564"
         sodipodi:absref="/home/aske/Downloads/projektbeskrivelse_img26.png" /></mask><clipPath
       clipPathUnits="userSpaceOnUse"
       id="clipPath574"><path
         d="m 133.56,453.24 c -4.307,0 -7.8,-3.492 -7.8,-7.8 v 0 -31.2 c 0,-4.308 3.493,-7.8 7.8,-7.8 v 0 h 43.1 c 4.307,0 7.8,3.492 7.8,7.8 v 0 31.2 c 0,4.308 -3.493,7.8 -7.8,7.8 v 0 z"
         id="path572"
         inkscape:connector-curvature="0" /></clipPath><clipPath
       clipPathUnits="userSpaceOnUse"
       id="clipPath584"><path
         d="m 125.75999,453.24 h 58.7 v -46.8 h -58.7 z"
         id="path582"
         inkscape:connector-curvature="0" /></clipPath><linearGradient
       x1="-119.81"
       y1="-406.44"
       x2="-119.81"
       y2="-453.23999"
       gradientUnits="userSpaceOnUse"
       gradientTransform="matrix(1,0,0,-1,251.51999,0)"
       spreadMethod="pad"
       id="linearGradient592"><stop
         style="stop-opacity:1;stop-color:#bcbcbc"
         offset="0"
         id="stop586" /><stop
         style="stop-opacity:1;stop-color:#d0d0d0"
         offset="0.35"
         id="stop588" /><stop
         style="stop-opacity:1;stop-color:#ededed"
         offset="1"
         id="stop590" /></linearGradient><clipPath
       clipPathUnits="userSpaceOnUse"
       id="clipPath602"><path
         d="M 0,0 H 595.32 V 841.92 H 0 Z"
         id="path600"
         inkscape:connector-curvature="0" /></clipPath><mask
       maskUnits="userSpaceOnUse"
       x="0"
       y="0"
       width="1"
       height="1"
       id="mask612"><image
         width="1"
         height="1"
         style="image-rendering:optimizeSpeed"
         preserveAspectRatio="none"
         xlink:href="file:///home/aske/Downloads/projektbeskrivelse_img28.png"
         id="image614"
         sodipodi:absref="/home/aske/Downloads/projektbeskrivelse_img28.png" /></mask><clipPath
       clipPathUnits="userSpaceOnUse"
       id="clipPath662"><path
         d="m 322.08,496.32 h 71.879 v 52.56 H 322.08 Z m 3.72,12.859 v 30.033 c 0,4.146 3.361,7.508 7.509,7.508 v 0 h 49.432 c 4.147,0 7.509,-3.362 7.509,-7.508 v 0 -30.033 c 0,-4.148 -3.362,-7.509 -7.509,-7.509 v 0 h -49.432 c -4.148,0 -7.509,3.361 -7.509,7.509"
         id="path660"
         inkscape:connector-curvature="0" /></clipPath><mask
       maskUnits="userSpaceOnUse"
       x="0"
       y="0"
       width="1"
       height="1"
       id="mask668"><image
         width="1"
         height="1"
         style="image-rendering:optimizeSpeed"
         preserveAspectRatio="none"
         xlink:href="file:///home/aske/Downloads/projektbeskrivelse_img30.png"
         id="image670"
         sodipodi:absref="/home/aske/Downloads/projektbeskrivelse_img30.png" /></mask><clipPath
       clipPathUnits="userSpaceOnUse"
       id="clipPath680"><path
         d="m 389.484,542.52 c 0.49,-0.998 0.766,-2.121 0.766,-3.308 v 0 -30.033 c 0,-2.537 -1.258,-4.78 -3.184,-6.139 v 0 h 4.014 v 39.48 z m -64.404,0 v -39.48 h 3.904 c -1.926,1.359 -3.184,3.602 -3.184,6.139 v 0 30.033 c 0,1.187 0.276,2.31 0.766,3.308 v 0 z"
         id="path678"
         inkscape:connector-curvature="0" /></clipPath><mask
       maskUnits="userSpaceOnUse"
       x="0"
       y="0"
       width="1"
       height="1"
       id="mask686"><image
         width="1"
         height="1"
         style="image-rendering:optimizeSpeed"
         preserveAspectRatio="none"
         xlink:href="file:///home/aske/Downloads/projektbeskrivelse_img32.png"
         id="image688"
         sodipodi:absref="/home/aske/Downloads/projektbeskrivelse_img32.png" /></mask><clipPath
       clipPathUnits="userSpaceOnUse"
       id="clipPath698"><path
         d="m 333.309,546.72 c -4.148,0 -7.509,-3.362 -7.509,-7.508 v 0 -30.033 c 0,-4.148 3.361,-7.509 7.509,-7.509 v 0 h 49.432 c 4.147,0 7.509,3.361 7.509,7.509 v 0 30.033 c 0,4.146 -3.362,7.508 -7.509,7.508 v 0 z"
         id="path696"
         inkscape:connector-curvature="0" /></clipPath><clipPath
       clipPathUnits="userSpaceOnUse"
       id="clipPath708"><path
         d="m 325.79998,546.72 h 64.45 v -45.05 h -64.45 z"
         id="path706"
         inkscape:connector-curvature="0" /></clipPath><linearGradient
       x1="-316.10001"
       y1="-501.67001"
       x2="-316.10001"
       y2="-546.71997"
       gradientUnits="userSpaceOnUse"
       gradientTransform="matrix(1,0,0,-1,651.59998,0)"
       spreadMethod="pad"
       id="linearGradient716"><stop
         style="stop-opacity:1;stop-color:#bcbcbc"
         offset="0"
         id="stop710" /><stop
         style="stop-opacity:1;stop-color:#d0d0d0"
         offset="0.35"
         id="stop712" /><stop
         style="stop-opacity:1;stop-color:#ededed"
         offset="1"
         id="stop714" /></linearGradient><clipPath
       clipPathUnits="userSpaceOnUse"
       id="clipPath726"><path
         d="M 0,0 H 595.32 V 841.92 H 0 Z"
         id="path724"
         inkscape:connector-curvature="0" /></clipPath><mask
       maskUnits="userSpaceOnUse"
       x="0"
       y="0"
       width="1"
       height="1"
       id="mask736"><image
         width="1"
         height="1"
         style="image-rendering:optimizeSpeed"
         preserveAspectRatio="none"
         xlink:href="file:///home/aske/Downloads/projektbeskrivelse_img34.png"
         id="image738"
         sodipodi:absref="/home/aske/Downloads/projektbeskrivelse_img34.png" /></mask><clipPath
       clipPathUnits="userSpaceOnUse"
       id="clipPath752"><path
         d="m 413.64,402 h 115.68 v 54.239 H 413.64 Z m 3.72,13.08 v 31.199 c 0,4.309 3.493,7.801 7.8,7.801 v 0 h 92.6 c 4.308,0 7.8,-3.492 7.8,-7.801 v 0 -31.199 c 0,-4.307 -3.492,-7.8 -7.8,-7.8 v 0 h -92.6 c -4.307,0 -7.8,3.493 -7.8,7.8"
         id="path750"
         inkscape:connector-curvature="0" /></clipPath><mask
       maskUnits="userSpaceOnUse"
       x="0"
       y="0"
       width="1"
       height="1"
       id="mask758"><image
         width="1"
         height="1"
         style="image-rendering:optimizeSpeed"
         preserveAspectRatio="none"
         xlink:href="file:///home/aske/Downloads/projektbeskrivelse_img36.png"
         id="image760"
         sodipodi:absref="/home/aske/Downloads/projektbeskrivelse_img36.png" /></mask><clipPath
       clipPathUnits="userSpaceOnUse"
       id="clipPath770"><path
         d="m 524.801,449.64 c 0.487,-1.018 0.759,-2.157 0.759,-3.361 v 0 -31.199 c 0,-2.7 -1.372,-5.08 -3.457,-6.48 v 0 h 4.217 v 41.04 z m -108.161,0 V 408.6 h 4.177 c -2.085,1.4 -3.457,3.78 -3.457,6.48 v 0 31.199 c 0,1.204 0.272,2.343 0.759,3.361 v 0 z"
         id="path768"
         inkscape:connector-curvature="0" /></clipPath><mask
       maskUnits="userSpaceOnUse"
       x="0"
       y="0"
       width="1"
       height="1"
       id="mask776"><image
         width="1"
         height="1"
         style="image-rendering:optimizeSpeed"
         preserveAspectRatio="none"
         xlink:href="file:///home/aske/Downloads/projektbeskrivelse_img38.png"
         id="image778"
         sodipodi:absref="/home/aske/Downloads/projektbeskrivelse_img38.png" /></mask><clipPath
       clipPathUnits="userSpaceOnUse"
       id="clipPath788"><path
         d="m 425.16,454.08 c -4.307,0 -7.8,-3.492 -7.8,-7.801 v 0 -31.199 c 0,-4.307 3.493,-7.8 7.8,-7.8 v 0 h 92.6 c 4.308,0 7.8,3.493 7.8,7.8 v 0 31.199 c 0,4.309 -3.492,7.801 -7.8,7.801 v 0 z"
         id="path786"
         inkscape:connector-curvature="0" /></clipPath><clipPath
       clipPathUnits="userSpaceOnUse"
       id="clipPath798"><path
         d="m 417.35997,454.08 h 108.2 v -46.8 h -108.2 z"
         id="path796"
         inkscape:connector-curvature="0" /></clipPath><linearGradient
       x1="-386.66"
       y1="-407.28"
       x2="-386.66"
       y2="-454.07999"
       gradientUnits="userSpaceOnUse"
       gradientTransform="matrix(1,0,0,-1,834.71997,0)"
       spreadMethod="pad"
       id="linearGradient806"><stop
         style="stop-opacity:1;stop-color:#bcbcbc"
         offset="0"
         id="stop800" /><stop
         style="stop-opacity:1;stop-color:#d0d0d0"
         offset="0.35"
         id="stop802" /><stop
         style="stop-opacity:1;stop-color:#ededed"
         offset="1"
         id="stop804" /></linearGradient><clipPath
       clipPathUnits="userSpaceOnUse"
       id="clipPath816"><path
         d="M 0,0 H 595.32 V 841.92 H 0 Z"
         id="path814"
         inkscape:connector-curvature="0" /></clipPath><mask
       maskUnits="userSpaceOnUse"
       x="0"
       y="0"
       width="1"
       height="1"
       id="mask826"><image
         width="1"
         height="1"
         style="image-rendering:optimizeSpeed"
         preserveAspectRatio="none"
         xlink:href="file:///home/aske/Downloads/projektbeskrivelse_img40.png"
         id="image828"
         sodipodi:absref="/home/aske/Downloads/projektbeskrivelse_img40.png" /></mask><clipPath
       clipPathUnits="userSpaceOnUse"
       id="clipPath850"><path
         d="m 321.84,402.24 h 71.88 v 52.56 h -71.88 z m 3.72,12.858 v 30.034 c 0,4.146 3.361,7.508 7.508,7.508 v 0 h 49.434 c 4.146,0 7.508,-3.362 7.508,-7.508 v 0 -30.034 c 0,-4.146 -3.362,-7.508 -7.508,-7.508 v 0 h -49.434 c -4.147,0 -7.508,3.362 -7.508,7.508"
         id="path848"
         inkscape:connector-curvature="0" /></clipPath><mask
       maskUnits="userSpaceOnUse"
       x="0"
       y="0"
       width="1"
       height="1"
       id="mask856"><image
         width="1"
         height="1"
         style="image-rendering:optimizeSpeed"
         preserveAspectRatio="none"
         xlink:href="file:///home/aske/Downloads/projektbeskrivelse_img42.png"
         id="image858"
         sodipodi:absref="/home/aske/Downloads/projektbeskrivelse_img42.png" /></mask><clipPath
       clipPathUnits="userSpaceOnUse"
       id="clipPath868"><path
         d="m 389.301,448.32 c 0.455,-0.968 0.709,-2.048 0.709,-3.188 v 0 -30.034 c 0,-2.612 -1.335,-4.913 -3.359,-6.258 v 0 h 4.309 v 39.48 z m -64.461,0 v -39.48 h 4.078 c -2.024,1.345 -3.358,3.646 -3.358,6.258 v 0 30.034 c 0,1.14 0.254,2.22 0.708,3.188 v 0 z"
         id="path866"
         inkscape:connector-curvature="0" /></clipPath><mask
       maskUnits="userSpaceOnUse"
       x="0"
       y="0"
       width="1"
       height="1"
       id="mask874"><image
         width="1"
         height="1"
         style="image-rendering:optimizeSpeed"
         preserveAspectRatio="none"
         xlink:href="file:///home/aske/Downloads/projektbeskrivelse_img44.png"
         id="image876"
         sodipodi:absref="/home/aske/Downloads/projektbeskrivelse_img44.png" /></mask><clipPath
       clipPathUnits="userSpaceOnUse"
       id="clipPath886"><path
         d="m 333.068,452.64 c -4.146,0 -7.508,-3.362 -7.508,-7.508 v 0 -30.034 c 0,-4.146 3.362,-7.508 7.508,-7.508 v 0 h 49.434 c 4.146,0 7.508,3.362 7.508,7.508 v 0 30.034 c 0,4.146 -3.362,7.508 -7.508,7.508 v 0 z"
         id="path884"
         inkscape:connector-curvature="0" /></clipPath><clipPath
       clipPathUnits="userSpaceOnUse"
       id="clipPath896"><path
         d="m 325.56,452.64 h 64.45 v -45.05 h -64.45 z"
         id="path894"
         inkscape:connector-curvature="0" /></clipPath><linearGradient
       x1="-315.85999"
       y1="-407.59"
       x2="-315.85999"
       y2="-452.64001"
       gradientUnits="userSpaceOnUse"
       gradientTransform="matrix(1,0,0,-1,651.12,0)"
       spreadMethod="pad"
       id="linearGradient904"><stop
         style="stop-opacity:1;stop-color:#bcbcbc"
         offset="0"
         id="stop898" /><stop
         style="stop-opacity:1;stop-color:#d0d0d0"
         offset="0.35"
         id="stop900" /><stop
         style="stop-opacity:1;stop-color:#ededed"
         offset="1"
         id="stop902" /></linearGradient><clipPath
       clipPathUnits="userSpaceOnUse"
       id="clipPath914"><path
         d="M 0,0 H 595.32 V 841.92 H 0 Z"
         id="path912"
         inkscape:connector-curvature="0" /></clipPath><mask
       maskUnits="userSpaceOnUse"
       x="0"
       y="0"
       width="1"
       height="1"
       id="mask924"><image
         width="1"
         height="1"
         style="image-rendering:optimizeSpeed"
         preserveAspectRatio="none"
         xlink:href="file:///home/aske/Downloads/projektbeskrivelse_img46.png"
         id="image926"
         sodipodi:absref="/home/aske/Downloads/projektbeskrivelse_img46.png" /></mask></defs><sodipodi:namedview
     pagecolor="#ffffff"
     bordercolor="#666666"
     borderopacity="1"
     objecttolerance="10"
     gridtolerance="10"
     guidetolerance="10"
     inkscape:pageopacity="0"
     inkscape:pageshadow="2"
     inkscape:window-width="3840"
     inkscape:window-height="2160"
     id="namedview4"
     showgrid="false"
     inkscape:zoom="4.7494876"
     inkscape:cx="396.88"
     inkscape:cy="594.96787"
     inkscape:window-x="0"
     inkscape:window-y="0"
     inkscape:window-maximized="0"
     inkscape:current-layer="g10" /><g
     id="g10"
     inkscape:groupmode="layer"
     inkscape:label="projektbeskrivelse"
     transform="matrix(1.3333333,0,0,-1.3333333,0,1122.56)"><g
   id="g206"><g
     id="g208"
     clip-path="url(#clipPath212)"><g
       id="g214"><g
         id="g216"><g
           id="g218"
           clip-path="url(#clipPath222)"><path
             d="m 69,547.32 c -4.308,0 -7.8,-3.492 -7.8,-7.801 v 0 -31.199 c 0,-4.307 3.492,-7.8 7.8,-7.8 v 0 h 108.5 c 4.308,0 7.8,3.493 7.8,7.8 v 0 31.199 c 0,4.309 -3.492,7.801 -7.8,7.801 v 0 z"
             style="fill:url(#linearGradient230);stroke:none"
             id="path232"
             inkscape:connector-curvature="0" /></g></g></g></g></g><g
   id="g234"><g
     id="g236"
     clip-path="url(#clipPath240)"><g
       id="g242"
       transform="translate(61.2,539.5198)"><path
         d="m 0,0 c 0,4.308 3.492,7.8 7.8,7.8 h 108.5 c 4.308,0 7.8,-3.492 7.8,-7.8 v -31.2 c 0,-4.308 -3.492,-7.8 -7.8,-7.8 H 7.8 C 3.492,-39 0,-35.508 0,-31.2 Z"
         style="fill:none;stroke:#000000;stroke-width:0.75;stroke-linecap:butt;stroke-linejoin:round;stroke-miterlimit:10;stroke-dasharray:none;stroke-opacity:1"
         id="path244"
         inkscape:connector-curvature="0" /></g></g></g><text
   transform="matrix(1,0,0,-1,90.72,519)"
   style="font-variant:normal;font-weight:normal;font-stretch:normal;font-size:9.47999954px;font-family:Arial;-inkscape-font-specification:ArialMT;writing-mode:lr-tb;fill:#000000;fill-opacity:1;fill-rule:nonzero;stroke:none"
   id="text258"><tspan
     x="0"
     sodipodi:role="line"
     id="tspan256"
     y="0"> </tspan></text>

<g
   id="g296"><g
     id="g298"
     clip-path="url(#clipPath302)"><g
       id="g304"><g
         id="g306"><g
           id="g308"
           clip-path="url(#clipPath312)"><path
             d="m 226.776,548.04 c -7.278,0 -13.176,-5.899 -13.176,-13.175 v 0 -114.8 c 0,-7.276 5.898,-13.175 13.176,-13.175 v 0 h 52.698 c 7.277,0 13.176,5.899 13.176,13.175 v 0 114.8 c 0,7.276 -5.899,13.175 -13.176,13.175 v 0 z"
             style="fill:url(#linearGradient320);stroke:none"
             id="path322"
             inkscape:connector-curvature="0" /></g></g></g></g></g><g
   id="g324"><g
     id="g326"
     clip-path="url(#clipPath330)"><g
       id="g332"
       transform="translate(213.6,534.8647)"><path
         d="m 0,0 c 0,7.276 5.899,13.175 13.175,13.175 h 52.7 C 73.151,13.175 79.05,7.276 79.05,0 v -114.8 c 0,-7.276 -5.899,-13.175 -13.175,-13.175 h -52.7 C 5.899,-127.975 0,-122.076 0,-114.8 Z"
         style="fill:none;stroke:#000000;stroke-width:0.75;stroke-linecap:butt;stroke-linejoin:round;stroke-miterlimit:10;stroke-dasharray:none;stroke-opacity:1"
         id="path334"
         inkscape:connector-curvature="0" /></g></g></g><g
   id="g386"><g
     id="g388"
     clip-path="url(#clipPath392)"><g
       id="g394"><g
         id="g396"><g
           id="g398"
           clip-path="url(#clipPath402)"><path
             d="m 425.4,548.28 c -4.308,0 -7.8,-3.492 -7.8,-7.8 v 0 -31.2 c 0,-4.308 3.492,-7.8 7.8,-7.8 v 0 H 518 c 4.308,0 7.8,3.492 7.8,7.8 v 0 31.2 c 0,4.308 -3.492,7.8 -7.8,7.8 v 0 z"
             style="fill:url(#linearGradient410);stroke:none"
             id="path412"
             inkscape:connector-curvature="0" /></g></g></g></g></g><g
   id="g414"><g
     id="g416"
     clip-path="url(#clipPath420)"><g
       id="g422"
       transform="translate(417.6,540.4799)"><path
         d="m 0,0 c 0,4.308 3.492,7.8 7.8,7.8 h 92.6 c 4.308,0 7.8,-3.492 7.8,-7.8 v -31.2 c 0,-4.308 -3.492,-7.8 -7.8,-7.8 H 7.8 C 3.492,-39 0,-35.508 0,-31.2 Z"
         style="fill:none;stroke:#000000;stroke-width:0.75;stroke-linecap:butt;stroke-linejoin:round;stroke-miterlimit:10;stroke-dasharray:none;stroke-opacity:1"
         id="path424"
         inkscape:connector-curvature="0" /></g></g></g><g
   id="g476"><g
     id="g478"
     clip-path="url(#clipPath482)"><g
       id="g484"><g
         id="g486"><g
           id="g488"
           clip-path="url(#clipPath492)"><path
             d="m 69,453.6 c -4.308,0 -7.8,-3.492 -7.8,-7.8 v 0 -31.2 c 0,-4.308 3.492,-7.8 7.8,-7.8 v 0 h 43.05 c 4.307,0 7.8,3.492 7.8,7.8 v 0 31.2 c 0,4.308 -3.493,7.8 -7.8,7.8 v 0 z"
             style="fill:url(#linearGradient500);stroke:none"
             id="path502"
             inkscape:connector-curvature="0" /></g></g></g></g></g><g
   id="g504"><g
     id="g506"
     clip-path="url(#clipPath510)"><g
       id="g512"
       transform="translate(61.2,445.7998)"><path
         d="m 0,0 c 0,4.308 3.492,7.8 7.8,7.8 h 43.05 c 4.308,0 7.8,-3.492 7.8,-7.8 v -31.2 c 0,-4.308 -3.492,-7.8 -7.8,-7.8 H 7.8 C 3.492,-39 0,-35.508 0,-31.2 Z"
         style="fill:none;stroke:#000000;stroke-width:0.75;stroke-linecap:butt;stroke-linejoin:round;stroke-miterlimit:10;stroke-dasharray:none;stroke-opacity:1"
         id="path514"
         inkscape:connector-curvature="0" /></g></g></g><g
   id="g568"><g
     id="g570"
     clip-path="url(#clipPath574)"><g
       id="g576"><g
         id="g578"><g
           id="g580"
           clip-path="url(#clipPath584)"><path
             d="m 133.56,453.24 c -4.307,0 -7.8,-3.492 -7.8,-7.8 v 0 -31.2 c 0,-4.308 3.493,-7.8 7.8,-7.8 v 0 h 43.1 c 4.307,0 7.8,3.492 7.8,7.8 v 0 31.2 c 0,4.308 -3.493,7.8 -7.8,7.8 v 0 z"
             style="fill:url(#linearGradient592);stroke:none"
             id="path594"
             inkscape:connector-curvature="0" /></g></g></g></g></g><g
   id="g596"><g
     id="g598"
     clip-path="url(#clipPath602)"><g
       id="g604"
       transform="translate(125.76,445.4398)"><path
         d="m 0,0 c 0,4.308 3.492,7.8 7.8,7.8 h 43.1 c 4.308,0 7.8,-3.492 7.8,-7.8 v -31.2 c 0,-4.308 -3.492,-7.8 -7.8,-7.8 H 7.8 C 3.492,-39 0,-35.508 0,-31.2 Z"
         style="fill:none;stroke:#000000;stroke-width:0.75;stroke-linecap:butt;stroke-linejoin:round;stroke-miterlimit:10;stroke-dasharray:none;stroke-opacity:1"
         id="path606"
         inkscape:connector-curvature="0" /></g></g></g><g
   id="g624"
   transform="translate(190.1999,523.5577)"><path
     d="M 0,0 H 9.225 V 0 H 18.45"
     style="fill:none;stroke:#4c5a2f;stroke-width:0.75;stroke-linecap:butt;stroke-linejoin:round;stroke-miterlimit:10;stroke-dasharray:none;stroke-opacity:1"
     id="path626"
     inkscape:connector-curvature="0" /></g><g
   id="g628"
   transform="translate(207.65,526.5579)"><path
     d="M 0,0 6,-3 0,-6 Z"
     style="fill:#4c5a2f;fill-opacity:1;fill-rule:evenodd;stroke:none"
     id="path630"
     inkscape:connector-curvature="0" /></g><g
   id="g632"
   transform="translate(191.2,520.558)"><path
     d="M 0,0 -6,3 0,6 Z"
     style="fill:#4c5a2f;fill-opacity:1;fill-rule:evenodd;stroke:none"
     id="path634"
     inkscape:connector-curvature="0" /></g><g
   id="g636"
   transform="translate(384.0998,523.8575)"><path
     d="M 0,0 H 16.825 V 0 H 33.65"
     style="fill:none;stroke:#4c5a2f;stroke-width:0.75;stroke-linecap:butt;stroke-linejoin:round;stroke-miterlimit:10;stroke-dasharray:none;stroke-opacity:1"
     id="path638"
     inkscape:connector-curvature="0" /></g><g
   id="g640"
   transform="translate(471.0498,501.2108)"><path
     d="M 0,0 H 0.563 V -7.05 H -171.95"
     style="fill:none;stroke:#4c5a2f;stroke-width:0.75;stroke-linecap:butt;stroke-linejoin:round;stroke-miterlimit:10;stroke-dasharray:none;stroke-opacity:1"
     id="path642"
     inkscape:connector-curvature="0" /></g><g
   id="g644"
   transform="translate(300.0997,497.1611)"><path
     d="M 0,0 -6,-3 0,-6 Z"
     style="fill:#4c5a2f;fill-opacity:1;fill-rule:evenodd;stroke:none"
     id="path646"
     inkscape:connector-curvature="0" /></g><g
   id="g692"><g
     id="g694"
     clip-path="url(#clipPath698)"><g
       id="g700"><g
         id="g702"><g
           id="g704"
           clip-path="url(#clipPath708)"><path
             d="m 333.309,546.72 c -4.148,0 -7.509,-3.362 -7.509,-7.508 v 0 -30.033 c 0,-4.148 3.361,-7.509 7.509,-7.509 v 0 h 49.432 c 4.147,0 7.509,3.361 7.509,7.509 v 0 30.033 c 0,4.146 -3.362,7.508 -7.509,7.508 v 0 z"
             style="fill:url(#linearGradient716);stroke:none"
             id="path718"
             inkscape:connector-curvature="0" /></g></g></g></g></g><g
   id="g720"><g
     id="g722"
     clip-path="url(#clipPath726)"><g
       id="g728"
       transform="translate(325.8,539.2115)"><path
         d="M 0,0 C 0,4.147 3.362,7.508 7.508,7.508 H 56.942 C 61.088,7.508 64.45,4.147 64.45,0 v -30.033 c 0,-4.147 -3.362,-7.509 -7.508,-7.509 H 7.508 C 3.362,-37.542 0,-34.18 0,-30.033 Z"
         style="fill:none;stroke:#000000;stroke-width:0.75;stroke-linecap:butt;stroke-linejoin:round;stroke-miterlimit:10;stroke-dasharray:none;stroke-opacity:1"
         id="path730"
         inkscape:connector-curvature="0" /></g></g></g><g
   id="g782"><g
     id="g784"
     clip-path="url(#clipPath788)"><g
       id="g790"><g
         id="g792"><g
           id="g794"
           clip-path="url(#clipPath798)"><path
             d="m 425.16,454.08 c -4.307,0 -7.8,-3.492 -7.8,-7.801 v 0 -31.199 c 0,-4.307 3.493,-7.8 7.8,-7.8 v 0 h 92.6 c 4.308,0 7.8,3.493 7.8,7.8 v 0 31.199 c 0,4.309 -3.492,7.801 -7.8,7.801 v 0 z"
             style="fill:url(#linearGradient806);stroke:none"
             id="path808"
             inkscape:connector-curvature="0" /></g></g></g></g></g><g
   id="g810"><g
     id="g812"
     clip-path="url(#clipPath816)"><g
       id="g818"
       transform="translate(417.36,446.2799)"><path
         d="m 0,0 c 0,4.308 3.492,7.8 7.8,7.8 h 92.6 c 4.308,0 7.8,-3.492 7.8,-7.8 v -31.2 c 0,-4.308 -3.492,-7.8 -7.8,-7.8 H 7.8 C 3.492,-39 0,-35.508 0,-31.2 Z"
         style="fill:none;stroke:#000000;stroke-width:0.75;stroke-linecap:butt;stroke-linejoin:round;stroke-miterlimit:10;stroke-dasharray:none;stroke-opacity:1"
         id="path820"
         inkscape:connector-curvature="0" /></g></g></g><g
   id="g836"
   transform="translate(383.5998,430.5169)"><path
     d="M 0,0 H 16.825 V 0 H 33.65"
     style="fill:none;stroke:#4c5a2f;stroke-width:0.75;stroke-linecap:butt;stroke-linejoin:round;stroke-miterlimit:10;stroke-dasharray:none;stroke-opacity:1"
     id="path838"
     inkscape:connector-curvature="0" /></g><g
   id="g880"><g
     id="g882"
     clip-path="url(#clipPath886)"><g
       id="g888"><g
         id="g890"><g
           id="g892"
           clip-path="url(#clipPath896)"><path
             d="m 333.068,452.64 c -4.146,0 -7.508,-3.362 -7.508,-7.508 v 0 -30.034 c 0,-4.146 3.362,-7.508 7.508,-7.508 v 0 h 49.434 c 4.146,0 7.508,3.362 7.508,7.508 v 0 30.034 c 0,4.146 -3.362,7.508 -7.508,7.508 v 0 z"
             style="fill:url(#linearGradient904);stroke:none"
             id="path906"
             inkscape:connector-curvature="0" /></g></g></g></g></g><g
   id="g908"><g
     id="g910"
     clip-path="url(#clipPath914)"><g
       id="g916"
       transform="translate(325.56,445.1316)"><path
         d="M 0,0 C 0,4.147 3.362,7.508 7.508,7.508 H 56.942 C 61.088,7.508 64.45,4.147 64.45,0 v -30.033 c 0,-4.147 -3.362,-7.509 -7.508,-7.509 H 7.508 C 3.362,-37.542 0,-34.18 0,-30.033 Z"
         style="fill:none;stroke:#000000;stroke-width:0.75;stroke-linecap:butt;stroke-linejoin:round;stroke-miterlimit:10;stroke-dasharray:none;stroke-opacity:1"
         id="path918"
         inkscape:connector-curvature="0" /></g></g></g><g
   id="g934"
   transform="translate(471.0499,454.0138)"><path
     d="M 0,0 H 0.073 V 6.6 H -173.15"
     style="fill:none;stroke:#4c5a2f;stroke-width:0.75;stroke-linecap:butt;stroke-linejoin:round;stroke-miterlimit:10;stroke-dasharray:none;stroke-opacity:1"
     id="path936"
     inkscape:connector-curvature="0" /></g><g
   id="g938"
   transform="translate(298.8997,457.6136)"><path
     d="M 0,0 -6,3 0,6 Z"
     style="fill:#4c5a2f;fill-opacity:1;fill-rule:evenodd;stroke:none"
     id="path940"
     inkscape:connector-curvature="0" /></g><g
   id="g946"
   transform="translate(90.4499,453.6608)"><path
     d="M 0,0 V 41.8"
     style="fill:none;stroke:#4c5a2f;stroke-width:0.75;stroke-linecap:butt;stroke-linejoin:round;stroke-miterlimit:10;stroke-dasharray:none;stroke-opacity:1"
     id="path948"
     inkscape:connector-curvature="0" /></g><g
   id="g950"
   transform="translate(93.4503,494.4609)"><path
     d="M 0,0 -3,6 -6,0 Z"
     style="fill:#4c5a2f;fill-opacity:1;fill-rule:evenodd;stroke:none"
     id="path952"
     inkscape:connector-curvature="0" /></g><g
   id="g954"
   transform="translate(155.0998,500.6107)"><path
     d="M 0,0 V -42.25"
     style="fill:none;stroke:#4c5a2f;stroke-width:0.75;stroke-linecap:butt;stroke-linejoin:round;stroke-miterlimit:10;stroke-dasharray:none;stroke-opacity:1"
     id="path956"
     inkscape:connector-curvature="0" /></g><g
   id="g958"
   transform="translate(158.1002,459.3606)"><path
     d="M 0,0 -3,-6 -6,0 Z"
     style="fill:#4c5a2f;fill-opacity:1;fill-rule:evenodd;stroke:none"
     id="path960"
     inkscape:connector-curvature="0" /></g><g
   id="g962"
   transform="translate(292.8001,430.1185)"><path
     d="M 0,0 H 28"
     style="fill:none;stroke:#4c5a2f;stroke-width:0.75;stroke-linecap:butt;stroke-linejoin:round;stroke-miterlimit:10;stroke-dasharray:none;stroke-opacity:1"
     id="path964"
     inkscape:connector-curvature="0" /></g><g
   id="g966"
   transform="translate(319.8002,433.1187)"><path
     d="M 0,0 6,-3 0,-6 Z"
     style="fill:#4c5a2f;fill-opacity:1;fill-rule:evenodd;stroke:none"
     id="path968"
     inkscape:connector-curvature="0" /></g><g
   id="g970"
   transform="translate(292.6499,524.3077)"><path
     d="M 0,0 H 28"
     style="fill:none;stroke:#4c5a2f;stroke-width:0.75;stroke-linecap:butt;stroke-linejoin:round;stroke-miterlimit:10;stroke-dasharray:none;stroke-opacity:1"
     id="path972"
     inkscape:connector-curvature="0" /></g><g
   id="g974"
   transform="translate(319.6501,527.308)"><path
     d="M 0,0 6,-3 0,-6 Z"
     style="fill:#4c5a2f;fill-opacity:1;fill-rule:evenodd;stroke:none"
     id="path976"
     inkscape:connector-curvature="0" /></g><text
   xml:space="preserve"
   style="font-style:normal;font-weight:normal;font-size:11.00000095px;line-height:1.25;font-family:sans-serif;letter-spacing:0px;word-spacing:0px;fill:#000000;fill-opacity:1;stroke:none;stroke-width:0.75"
   x="84.951653"
   y="-521.16119"
   id="text1785"
   transform="scale(1,-1)"><tspan
     sodipodi:role="line"
     id="tspan1783"
     x="84.951653"
     y="-521.16119"
     style="font-size:10.00000095px;stroke-width:0.75">Microprocessor</tspan></text>

<text
   xml:space="preserve"
   style="font-style:normal;font-weight:normal;font-size:11.00000095px;line-height:1.25;font-family:sans-serif;letter-spacing:0px;word-spacing:0px;fill:#000000;fill-opacity:1;stroke:none;stroke-width:0.75"
   x="77.25351"
   y="-434.47003"
   id="text1789"
   transform="scale(1,-1)"><tspan
     sodipodi:role="line"
     id="tspan1787"
     x="77.25351"
     y="-434.47003"
     style="font-size:10.00000095px;stroke-width:0.75">User</tspan><tspan
     sodipodi:role="line"
     x="77.25351"
     y="-420.72003"
     style="font-size:10.00000095px;stroke-width:0.75"
     id="tspan1791">Input</tspan></text>

<text
   xml:space="preserve"
   style="font-style:normal;font-weight:normal;font-size:11.00000095px;line-height:1.25;font-family:sans-serif;letter-spacing:0px;word-spacing:0px;fill:#000000;fill-opacity:1;stroke:none;stroke-width:0.75"
   x="130.86682"
   y="-433.14078"
   id="text1795"
   transform="scale(1,-1)"><tspan
     sodipodi:role="line"
     id="tspan1793"
     x="130.86682"
     y="-433.14078"
     style="font-size:10.00000095px;text-align:start;text-anchor:start;stroke-width:0.75">User</tspan><tspan
     sodipodi:role="line"
     x="130.86682"
     y="-419.39078"
     style="font-size:10.00000095px;text-align:start;text-anchor:start;stroke-width:0.75"
     id="tspan1797">Feedback</tspan></text>

<text
   xml:space="preserve"
   style="font-style:normal;font-weight:normal;font-size:11.00000095px;line-height:1.25;font-family:sans-serif;letter-spacing:0px;word-spacing:0px;fill:#000000;fill-opacity:1;stroke:none;stroke-width:0.75"
   x="336.11093"
   y="-521.43622"
   id="text1801"
   transform="scale(1,-1)"><tspan
     sodipodi:role="line"
     id="tspan1799"
     x="336.11093"
     y="-521.43622"
     style="font-size:10.00000095px;stroke-width:0.75">H-Bridge</tspan></text>


<text
   xml:space="preserve"
   style="font-style:normal;font-weight:normal;font-size:11.00000095px;line-height:1.25;font-family:sans-serif;letter-spacing:0px;word-spacing:0px;fill:#000000;fill-opacity:1;stroke:none;stroke-width:0.75"
   x="239.47997"
   y="-473.82486"
   id="text1809"
   transform="scale(1,-1)"><tspan
     sodipodi:role="line"
     id="tspan1807"
     x="239.47997"
     y="-473.82486"
     style="font-size:10.00000095px;stroke-width:0.75">FPGA</tspan></text>


<text
   xml:space="preserve"
   style="font-style:normal;font-weight:normal;font-size:11.00000095px;line-height:1.25;font-family:sans-serif;letter-spacing:0px;word-spacing:0px;fill:#000000;fill-opacity:1;stroke:none;stroke-width:0.75"
   x="335.87094"
   y="-427.3562"
   id="text1801-7"
   transform="scale(1,-1)"><tspan
     sodipodi:role="line"
     id="tspan1799-5"
     x="335.87094"
     y="-427.3562"
     style="font-size:10px;stroke-width:0.75">H-Bridge</tspan></text>

<text
   xml:space="preserve"
   style="font-style:normal;font-weight:normal;font-size:11.00000095px;line-height:1.25;font-family:sans-serif;letter-spacing:0px;word-spacing:0px;fill:#000000;fill-opacity:1;stroke:none;stroke-width:0.75"
   x="429.22195"
   y="-521.15198"
   id="text1849"
   transform="scale(1,-1)"><tspan
     sodipodi:role="line"
     id="tspan1847"
     x="429.22195"
     y="-521.15198"
     style="font-size:10.00000095px;stroke-width:0.75">Motor \&amp; Encoder</tspan></text>

<text
   xml:space="preserve"
   style="font-style:normal;font-weight:normal;font-size:11.00000095px;line-height:1.25;font-family:sans-serif;letter-spacing:0px;word-spacing:0px;fill:#000000;fill-opacity:1;stroke:none;stroke-width:0.75"
   x="428.98196"
   y="-426.95197"
   id="text1849-3"
   transform="scale(1,-1)"><tspan
     sodipodi:role="line"
     id="tspan1847-5"
     x="428.98196"
     y="-426.95197"
     style="font-size:10.00000095px;stroke-width:0.75">Motor \&amp; Encoder</tspan></text>

</g></svg>