<?xml version="1.0" encoding="UTF-8" standalone="no"?>
<svg
   xmlns:dc="http://purl.org/dc/elements/1.1/"
   xmlns:cc="http://creativecommons.org/ns#"
   xmlns:rdf="http://www.w3.org/1999/02/22-rdf-syntax-ns#"
   xmlns:svg="http://www.w3.org/2000/svg"
   xmlns="http://www.w3.org/2000/svg"
   width="210mm"
   height="297mm"
   viewBox="0 0 210 297"
   version="1.1"
   id="svg8"
   enable-background="new">
  <defs
     id="defs2" />
  <metadata
     id="metadata5">
    <rdf:RDF>
      <cc:Work
         rdf:about="">
        <dc:format>image/svg+xml</dc:format>
        <dc:type
           rdf:resource="http://purl.org/dc/dcmitype/StillImage" />
        <dc:title></dc:title>
      </cc:Work>
    </rdf:RDF>
  </metadata>
  <g
     id="layer1">
    <g
       id="g4125"
       style="opacity:1;fill:#808080;fill-opacity:1;stroke:#0000fa;stroke-width:0;stroke-miterlimit:4;stroke-dasharray:none;stroke-dashoffset:0;stroke-opacity:1">
      <path
         id="path4127"
         d="m 79.137964,100.29477 v 32.20204 L 82.734,132.64967 V 101.3277 Z"
         points="79.137964,132.49681 82.734,132.64967 82.734,101.3277 79.137964,100.29477 "
         style="fill:#808080;fill-rule:evenodd;stroke:none;stroke-linejoin:round" />
      <path
         id="path4137"
         d="m 82.734,101.3277 3.724044,-0.61989 v 31.73046 l -3.724044,0.2114 z"
         points="86.458044,100.70781 86.458044,132.43827 82.734,132.64967 82.734,101.3277 "
         style="fill:#808080;fill-rule:evenodd;stroke:none;stroke-linejoin:round" />
      <path
         id="path4129"
         d="m 79.137964,100.29477 3.781851,-0.651391 3.538229,1.064431 -3.724044,0.61989 z"
         points="82.919815,99.643379 86.458044,100.70781 82.734,101.3277 79.137964,100.29477 "
         style="fill:#808080;fill-rule:evenodd;stroke:none;stroke-linejoin:round" />
      <path
         id="path4135"
         d="m 79.137964,132.49681 3.781851,-0.21946 3.538229,0.16092 -3.724044,0.2114 z"
         points="82.919815,132.27735 86.458044,132.43827 82.734,132.64967 79.137964,132.49681 "
         style="fill:#666666;fill-rule:evenodd;stroke:none;stroke-linejoin:round" />
      <path
         id="path4133"
         d="m 82.919815,99.643379 v 32.633971 l 3.538229,0.16092 v -31.73046 z"
         points="82.919815,132.27735 86.458044,132.43827 86.458044,100.70781 82.919815,99.643379 "
         style="fill:#b3b3b3;fill-rule:evenodd;stroke:none;stroke-linejoin:round" />
      <path
         id="path4131"
         d="m 79.137964,100.29477 3.781851,-0.651391 v 32.633971 l -3.781851,0.21946 z"
         points="82.919815,99.643379 82.919815,132.27735 79.137964,132.49681 79.137964,100.29477 "
         style="fill:#cccccc;fill-rule:evenodd;stroke:none;stroke-linejoin:round" />
    </g>
    <g
       id="g4097"
       style="opacity:1;fill:#999999;fill-opacity:1;stroke:#0000fa;stroke-width:0;stroke-miterlimit:4;stroke-dasharray:none;stroke-dashoffset:0;stroke-opacity:1">
      <path
         id="path4099"
         d="m 54.560095,93.229564 v 6.246325 l 24.587491,6.079881 v -5.26282 z"
         points="54.560095,99.475889 79.147586,105.55577 79.147586,100.29295 54.560095,93.229564 "
         style="fill:#999999;fill-rule:evenodd;stroke:none;stroke-linejoin:round" />
      <path
         id="path4109"
         d="m 79.147586,100.29295 3.771289,-0.649571 v 5.333211 l -3.771289,0.57918 z"
         points="82.918875,99.643379 82.918875,104.97659 79.147586,105.55577 79.147586,100.29295 "
         style="fill:#999999;fill-rule:evenodd;stroke:none;stroke-linejoin:round" />
      <path
         id="path4101"
         d="m 54.560095,93.229564 4.09598,-0.885302 24.2628,7.299117 -3.771289,0.649571 z"
         points="58.656075,92.344262 82.918875,99.643379 79.147586,100.29295 54.560095,93.229564 "
         style="fill:#999999;fill-rule:evenodd;stroke:none;stroke-linejoin:round" />
      <path
         id="path4107"
         d="m 54.560095,99.475889 4.09598,-0.785897 24.2628,6.286598 -3.771289,0.57918 z"
         points="58.656075,98.689992 82.918875,104.97659 79.147586,105.55577 54.560095,99.475889 "
         style="fill:#999999;fill-rule:evenodd;stroke:none;stroke-linejoin:round" />
      <path
         id="path4105"
         d="m 58.656075,92.344262 v 6.34573 l 24.2628,6.286598 v -5.333211 z"
         points="58.656075,98.689992 82.918875,104.97659 82.918875,99.643379 58.656075,92.344262 "
         style="fill:#b3b3b3;fill-rule:evenodd;stroke:none;stroke-linejoin:round" />
      <path
         id="path4103"
         d="m 54.560095,93.229564 4.09598,-0.885302 v 6.34573 l -4.09598,0.785897 z"
         points="58.656075,92.344262 58.656075,98.689992 54.560095,99.475889 54.560095,93.229564 "
         style="fill:#999999;fill-rule:evenodd;stroke:none;stroke-linejoin:round" />
    </g>
    <g
       id="g4111"
       style="opacity:1;fill:#999999;fill-opacity:1;stroke:#0000fa;stroke-width:0;stroke-miterlimit:4;stroke-dasharray:none;stroke-dashoffset:0;stroke-opacity:1">
      <path
         d="m 54.157682,125.18584 v 6.25259 l 24.980323,1.06129 v -5.25494 z"
         style="fill:#999999;fill-rule:evenodd;stroke:none;stroke-linejoin:round"
         id="path6682" />
      <path
         d="m 79.138005,127.24478 3.792958,-0.29076 v 5.32563 l -3.792958,0.22007 z"
         style="fill:#999999;fill-rule:evenodd;stroke:none;stroke-linejoin:round"
         id="path6684" />
      <path
         d="m 54.157682,125.18584 4.123738,-0.37989 24.649543,2.14807 -3.792958,0.29076 z"
         style="fill:#999999;fill-rule:evenodd;stroke:none;stroke-linejoin:round"
         id="path6686" />
      <path
         d="m 54.157682,131.43843 4.123738,-0.27955 24.649543,1.12077 -3.792958,0.22007 z"
         style="fill:#666666;fill-rule:evenodd;stroke:none;stroke-linejoin:round"
         id="path6688" />
      <path
         d="m 58.28142,124.80595 v 6.35293 l 24.649543,1.12077 v -5.32563 z"
         style="fill:#b3b3b3;fill-rule:evenodd;stroke:none;stroke-linejoin:round"
         id="path6690" />
      <path
         d="m 54.157682,125.18584 4.123738,-0.37989 v 6.35293 l -4.123738,0.27955 z"
         style="fill:#999999;fill-rule:evenodd;stroke:none;stroke-linejoin:round"
         id="path6692" />
    </g>
    <g
       id="g4083"
       style="opacity:1;fill:#b3b3b3;fill-opacity:1;stroke:#0000fa;stroke-width:0;stroke-miterlimit:4;stroke-dasharray:none;stroke-dashoffset:0;stroke-opacity:1">
      <path
         d="m 54.157682,93.274723 v 38.164967 l 5.576002,0.23685 V 94.870847 Z"
         style="fill:#b3b3b3;fill-rule:evenodd;stroke:none;stroke-width:0;stroke-linejoin:round;stroke-miterlimit:4;stroke-dasharray:none;stroke-dashoffset:0"
         id="path6668" />
      <path
         d="m 59.733684,94.870847 4.324153,-0.889171 v 37.411874 l -4.324153,0.28299 z"
         style="fill:#b3b3b3;fill-rule:evenodd;stroke:none;stroke-width:0;stroke-linejoin:round;stroke-miterlimit:4;stroke-dasharray:none;stroke-dashoffset:0"
         id="path6670" />
      <path
         d="m 54.157682,93.274723 4.391292,-0.949845 5.508863,1.656798 -4.324153,0.889171 z"
         style="fill:#b3b3b3;fill-rule:evenodd;stroke:none;stroke-width:0;stroke-linejoin:round;stroke-miterlimit:4;stroke-dasharray:none;stroke-dashoffset:0"
         id="path6672" />
      <path
         d="m 54.157682,131.43969 4.391292,-0.29767 5.219475,0.27633 -4.034765,0.25819 z"
         style="fill:#666666;fill-rule:evenodd;stroke:none;stroke-width:0;stroke-linejoin:round;stroke-miterlimit:4;stroke-dasharray:none;stroke-dashoffset:0"
         id="path6674" />
      <path
         d="m 58.548974,92.324878 v 38.817142 l 5.508863,0.25153 V 93.981676 Z"
         style="fill:#b3b3b3;fill-rule:evenodd;stroke:none;stroke-width:0;stroke-linejoin:round;stroke-miterlimit:4;stroke-dasharray:none;stroke-dashoffset:0"
         id="path6676" />
      <path
         d="m 54.157682,93.274723 4.391292,-0.949845 v 38.817142 l -4.391292,0.29767 z"
         style="fill:#cccccc;fill-rule:evenodd;stroke:none;stroke-width:0;stroke-linejoin:round;stroke-miterlimit:4;stroke-dasharray:none;stroke-dashoffset:0"
         id="path6678" />
      <path
         id="path127"
         d="m 36.318856,109.97485 19.941429,2.03658"
         style="opacity:0.5;fill:none;stroke:#000000;stroke-width:0.26458332px;stroke-linecap:butt;stroke-linejoin:miter;stroke-opacity:1" />
      <path
         id="path129"
         d="m 64.023266,112.91061 16.980865,1.80009"
         style="opacity:0.5;fill:none;stroke:#000000;stroke-width:0.26458332px;stroke-linecap:butt;stroke-linejoin:miter;stroke-opacity:1" />
      <path
         id="path131"
         d="m 86.464411,115.28073 15.618729,1.65241"
         style="opacity:0.5;fill:none;stroke:#000000;stroke-width:0.26458332px;stroke-linecap:butt;stroke-linejoin:miter;stroke-opacity:1" />
    </g>
    <g
       id="g5082"
       style="opacity:1;fill:#6666ff;fill-opacity:1;stroke:#0000fa;stroke-width:0;stroke-miterlimit:4;stroke-dasharray:none;stroke-dashoffset:0;stroke-opacity:1">
      <path
         id="path5084"
         d="m 54.082629,101.98625 v 0 l 27.039672,6.23251 v 0 z"
         points="54.082629,101.98625 81.122301,108.21876 81.122301,108.21876 54.082629,101.98625 "
         style="fill:#353564;fill-rule:evenodd;stroke:none;stroke-linejoin:round" />
      <path
         id="path5094"
         d="m 81.122301,108.21876 h 2e-6 v 0 z"
         points="81.122303,108.21876 81.122303,108.21876 81.122301,108.21876 "
         style="fill:#e9e9ff;fill-rule:evenodd;stroke:none;stroke-linejoin:round" />
      <path
         id="path5092"
         d="m 54.082629,101.98625 h 2e-6 l 27.039672,6.23251 h -2e-6 z"
         points="54.082631,101.98625 81.122303,108.21876 81.122301,108.21876 54.082629,101.98625 "
         style="fill:#afafde;fill-rule:evenodd;stroke:none;stroke-linejoin:round" />
      <path
         id="path5086"
         d="m 54.082629,101.98625 h 2e-6 l 27.039672,6.23251 h -2e-6 z"
         points="54.082631,101.98625 81.122303,108.21876 81.122301,108.21876 54.082629,101.98625 "
         style="fill:#4d4d9f;fill-rule:evenodd;stroke:none;stroke-linejoin:round" />
      <path
         id="path5090"
         d="m 54.082631,101.98625 v 0 l 27.039672,6.23251 v 0 z"
         points="54.082631,101.98625 81.122303,108.21876 81.122303,108.21876 54.082631,101.98625 "
         style="fill:#d7d7ff;fill-rule:evenodd;stroke:none;stroke-linejoin:round" />
      <path
         id="path5088"
         d="m 54.082629,101.98625 h 2e-6 v 0 z"
         points="54.082631,101.98625 54.082631,101.98625 54.082629,101.98625 "
         style="fill:#8686bf;fill-rule:evenodd;stroke:none;stroke-linejoin:round" />
    </g>
  </g>
  <path
     id="path70"
     d="m 82.930962,126.95402 -18.895642,-1.65184 0.02252,6.09137 18.861979,0.8838 0.01114,-5.32333 -0.01114,5.32333 -3.781811,0.22237 -19.404322,-0.82318 4.324154,-0.28299"
     style="fill:none;stroke:#000000;stroke-width:0.26458332px;stroke-linecap:butt;stroke-linejoin:miter;stroke-opacity:1" />
  <path
     id="path72"
     d="m 64.03532,125.30218 0.0217,-25.21348 7.94e-4,-6.107026 -5.508863,-1.656797 -4.391293,0.949846 v 38.163707 l 5.576001,0.23811 4.324155,-0.28299 -5.508863,-0.25153 -4.391293,0.29767 4.391293,-0.29767 V 92.324877"
     style="fill:none;stroke:#000000;stroke-width:0.26458332px;stroke-linecap:butt;stroke-linejoin:miter;stroke-opacity:1" />
  <path
     id="path74"
     d="m 64.057812,93.981674 18.862003,5.661705 -0.0011,5.333211 -18.843104,-4.87664 18.843104,4.87664 -3.771289,0.57918 -15.105568,-3.73823 0.02778,-1.72059 0.01061,0.005"
     style="fill:none;stroke:#000000;stroke-width:0.26458332px;stroke-linecap:butt;stroke-linejoin:miter;stroke-opacity:1" />
  <path
     id="path76"
     d="m 82.918873,99.643379 3.53917,1.064431 v 31.73046 l -3.527081,-0.15862 -0.01225,-27.30306 -3.771289,0.57918 -0.01815,21.09351 3.80167,0.30474"
     style="fill:none;stroke:#000000;stroke-width:0.26458332px;stroke-linecap:butt;stroke-linejoin:miter;stroke-opacity:1" />
  <path
     id="path78"
     d="m 86.458043,132.43827 -3.724045,0.2114 -3.304947,-0.14057 3.490764,-0.23175 z"
     style="fill:none;stroke:#000000;stroke-width:0.26458332px;stroke-linecap:butt;stroke-linejoin:miter;stroke-opacity:1" />
</svg>
